<svg width="36" height="36" fill="none" xmlns="http://www.w3.org/2000/svg">
  <path fill-rule="evenodd" clip-rule="evenodd" d="M35.597 3.477a1.5 1.5 0 0 1 .278 1.622l-11.768 27a1.5 1.5 0 0 1-2.387.509L14.157 25.7l-3.036 4.578a1.5 1.5 0 0 1-2.73-.58L6.825 20.34.872 17.596a1.5 1.5 0 0 1 .125-2.775l33-11.734a1.5 1.5 0 0 1 1.6.39ZM9.827 20.1l.896 5.35 1.902-2.869a1.5 1.5 0 0 1 .236-.276l11.04-10.122L9.826 20.1Zm8.665-8.317-13.02 4.63 2.633 1.213 10.387-5.843Zm11.805-1.395-14.2 13.02 6.098 5.57 8.102-18.59Z" fill="white"/>
</svg>
