<svg width="14" height="16" fill="none" xmlns="http://www.w3.org/2000/svg">
  <path d="M13.0778 6.68331 4.44176 15.5633c-.24.246-.638-.039-.482-.345l3.074-6.06599c.02328-.04578.03442-.09677.03235-.14809-.00207-.05132-.01728-.10125-.04418-.14501-.02689-.04375-.06457-.07987-.10943-.10489-.04485-.02502-.09538-.03811-.14674-.03801H.299757c-.059058-.00005-.116788-.01752-.165955-.05024-.0491673-.03272-.087584-.07922-.1104352-.13368-.02285107-.05446-.02912021-.11445-.01802154-.17246.01109864-.058.03907164-.11144.08041244-.15362L8.09576.0913129c.232-.2349999.618.0230001.489.3280001l-2.297 5.414997c-.01945.04591-.02715.09594-.02241.14557.00475.04963.02179.0973.04958.13869.02779.04139.06546.07521.10961.09838.04414.02318.09336.03499.14322.03436l6.29104-.078c.0593-.00095.1176.01573.1675.04794.0499.03221.0891.0785.1127.133.0235.0545.0304.11477.0197.17317-.0108.0584-.0386.11231-.0799.15489l-.001.001Z" fill="#000"/>
</svg>