<svg width="17" height="17" fill="none" xmlns="http://www.w3.org/2000/svg">
  <path d="m3.2916 7.53561-2.12 2.121C.421438 10.4068 0 11.4242 0 12.4851s.421438 2.0783 1.1716 2.8285c.75017.7502 1.76761 1.1716 2.8285 1.1716 1.0609 0 2.07834-.4214 2.8285-1.1716l2.828-2.828c.3715-.3714.6661-.8124.8671-1.2977.2011-.4853.3045-1.0055.3045-1.53079 0-.5253-.1034-1.04546-.3045-1.53078-.201-.48531-.4956-.92628-.8671-1.29772l-1.06 1.06c.23222.23216.41643.50778.54211.81114.12567.30336.19036.6285.19036.95686 0 .32836-.06469.65349-.19036.95689-.12568.3033-.30989.579-.54211.8111l-2.831 2.828c-.4715.4554-1.10301.7074-1.7585.7017-.65549-.0057-1.28252-.2686-1.74604-.7321-.46352-.4636-.72645-1.0906-.73214-1.7461-.0057-.6555.24629-1.287.70168-1.7585l2.12-2.12099-1.06-1.061h.001Z" fill="#000"/>
  <path d="m12.1304 7.8886 2.121-2.12c.4655-.46947.7261-1.10423.7248-1.76538-.0014-.66114-.2646-1.29483-.732-1.7624-.4674-.46756-1.1011-.73093-1.7622-.73247-.6612-.00154-1.296.25887-1.7656.72425l-2.82899 2.828c-.23222.23216-.41643.50779-.5421.81114-.12568.30336-.19037.6285-.19037.95686 0 .32836.06469.65351.19037.95686.12567.30336.30988.57899.5421.81114l-1.06 1.06c-.37146-.37143-.66612-.8124-.86715-1.29772-.20103-.48531-.3045-1.00547-.3045-1.53078 0-.5253.10347-1.04546.3045-1.53078.20103-.48531.49569-.92628.86715-1.29772l2.828-2.828C10.4056.421438 11.423-1e-8 12.4839 0c1.0609 1e-8 2.0783.421438 2.8285 1.1716.7502.75017 1.1716 1.76761 1.1716 2.8285 0 1.0609-.4214 2.07834-1.1716 2.8285l-2.121 2.121-1.061-1.06v-.001Z" fill="#000"/>
</svg>