<svg width="16" height="16" fill="none" xmlns="http://www.w3.org/2000/svg">
  <g clip-path="url(#a)">
    <mask id="b" style="mask-type:luminance" maskUnits="userSpaceOnUse" x="0" y="0" width="16" height="16">
      <path fill-rule="evenodd" clip-rule="evenodd" d="M.667 8A7.333 7.333 0 0 1 8 .667c.368 0 .667.298.667.666v13.334a.667.667 0 0 1-.667.666A7.333 7.333 0 0 1 .667 8Zm6.666-5.963a6 6 0 0 0 0 11.926V2.037Z" fill="#fff"/>
      <path d="M8 1.333a6.667 6.667 0 1 1 0 13.334V1.333Z" fill="#fff"/>
      <path fill-rule="evenodd" clip-rule="evenodd" d="M7.333 1.333c0-.368.299-.666.667-.666a7.333 7.333 0 1 1 0 14.666.667.667 0 0 1-.667-.666V1.333Zm1.334.704v11.926a6 6 0 0 0 0-11.926Z" fill="#fff"/>
      <path fill-rule="evenodd" clip-rule="evenodd" d="M2.333 4c0-.368.299-.667.667-.667h5a.667.667 0 0 1 0 1.334H3A.667.667 0 0 1 2.333 4ZM1 6.667C1 6.299 1.298 6 1.667 6H8a.667.667 0 0 1 0 1.333H1.667A.667.667 0 0 1 1 6.667Zm0 2.666c0-.368.298-.666.667-.666H8A.667.667 0 1 1 8 10H1.667A.667.667 0 0 1 1 9.333ZM2.333 12c0-.368.299-.667.667-.667h5a.667.667 0 0 1 0 1.334H3A.667.667 0 0 1 2.333 12Z" fill="#fff"/>
    </mask>
    <g mask="url(#b)">
      <path d="M0 0h16v16H0V0Z" fill="#fff"/>
    </g>
  </g>
  <defs>
    <clipPath id="a">
      <path fill="#fff" d="M0 0h16v16H0z"/>
    </clipPath>
  </defs>
</svg>