<svg width="20" height="20" viewBox="0 0 20 20" fill="none" xmlns="http://www.w3.org/2000/svg">
<path d="M16.667 1.66406H3.33366C2.41699 1.66406 1.67533 2.41406 1.67533 3.33073L1.66699 18.3307L5.00033 14.9974H16.667C17.5837 14.9974 18.3337 14.2474 18.3337 13.3307V3.33073C18.3337 2.41406 17.5837 1.66406 16.667 1.66406ZM5.83366 7.4974H14.167C14.6253 7.4974 15.0003 7.8724 15.0003 8.33073C15.0003 8.78906 14.6253 9.16406 14.167 9.16406H5.83366C5.37533 9.16406 5.00033 8.78906 5.00033 8.33073C5.00033 7.8724 5.37533 7.4974 5.83366 7.4974ZM10.8337 11.6641H5.83366C5.37533 11.6641 5.00033 11.2891 5.00033 10.8307C5.00033 10.3724 5.37533 9.9974 5.83366 9.9974H10.8337C11.292 9.9974 11.667 10.3724 11.667 10.8307C11.667 11.2891 11.292 11.6641 10.8337 11.6641ZM14.167 6.66406H5.83366C5.37533 6.66406 5.00033 6.28906 5.00033 5.83073C5.00033 5.3724 5.37533 4.9974 5.83366 4.9974H14.167C14.6253 4.9974 15.0003 5.3724 15.0003 5.83073C15.0003 6.28906 14.6253 6.66406 14.167 6.66406Z" fill="#B9B9B9"/>
</svg>
