<svg width="24" height="24" viewBox="0 0 24 24" fill="none" xmlns="http://www.w3.org/2000/svg">
<path d="M3.75 20.9531C3.75 21.368 4.08516 21.7031 4.5 21.7031H11.2031V12.8906H3.75V20.9531ZM12.7969 21.7031H19.5C19.9148 21.7031 20.25 21.368 20.25 20.9531V12.8906H12.7969V21.7031ZM20.625 7.26562H17.1656C17.4844 6.76406 17.6719 6.16875 17.6719 5.53125C17.6719 3.74766 16.2211 2.29688 14.4375 2.29688C13.4672 2.29688 12.593 2.72812 12 3.40781C11.407 2.72812 10.5328 2.29688 9.5625 2.29688C7.77891 2.29688 6.32812 3.74766 6.32812 5.53125C6.32812 6.16875 6.51328 6.76406 6.83438 7.26562H3.375C2.96016 7.26562 2.625 7.60078 2.625 8.01562V11.2969H11.2031V7.26562H12.7969V11.2969H21.375V8.01562C21.375 7.60078 21.0398 7.26562 20.625 7.26562ZM11.2031 7.17188H9.5625C8.65781 7.17188 7.92188 6.43594 7.92188 5.53125C7.92188 4.62656 8.65781 3.89062 9.5625 3.89062C10.4672 3.89062 11.2031 4.62656 11.2031 5.53125V7.17188ZM14.4375 7.17188H12.7969V5.53125C12.7969 4.62656 13.5328 3.89062 14.4375 3.89062C15.3422 3.89062 16.0781 4.62656 16.0781 5.53125C16.0781 6.43594 15.3422 7.17188 14.4375 7.17188Z" fill="#FA0050"/>
</svg>
