<svg width="16" height="16" viewBox="0 0 16 16" fill="none" xmlns="http://www.w3.org/2000/svg">
<g id="icons">
<path id="Vector" d="M10.0463 7.50016L9.44634 8.1135C8.96634 8.5935 8.66634 9.00016 8.66634 10.0002H7.33301V9.66683C7.33301 8.92683 7.63301 8.26016 8.11301 7.78016L8.93967 6.94016C9.18634 6.70016 9.33301 6.36683 9.33301 6.00016C9.33301 5.64654 9.19253 5.3074 8.94248 5.05735C8.69243 4.8073 8.3533 4.66683 7.99967 4.66683C7.64605 4.66683 7.30691 4.8073 7.05687 5.05735C6.80682 5.3074 6.66634 5.64654 6.66634 6.00016H5.33301C5.33301 5.29292 5.61396 4.61464 6.11406 4.11454C6.61415 3.61445 7.29243 3.3335 7.99967 3.3335C8.70692 3.3335 9.38519 3.61445 9.88529 4.11454C10.3854 4.61464 10.6663 5.29292 10.6663 6.00016C10.6654 6.56232 10.4426 7.10138 10.0463 7.50016ZM8.66634 12.6668H7.33301V11.3335H8.66634M7.99967 1.3335C7.1242 1.3335 6.25729 1.50593 5.44845 1.84097C4.63961 2.176 3.90469 2.66706 3.28563 3.28612C2.03539 4.53636 1.33301 6.23205 1.33301 8.00016C1.33301 9.76827 2.03539 11.464 3.28563 12.7142C3.90469 13.3333 4.63961 13.8243 5.44845 14.1594C6.25729 14.4944 7.1242 14.6668 7.99967 14.6668C9.76778 14.6668 11.4635 13.9644 12.7137 12.7142C13.964 11.464 14.6663 9.76827 14.6663 8.00016C14.6663 4.3135 11.6663 1.3335 7.99967 1.3335Z" fill="white"/>
</g>
</svg>
