<svg width="24" height="24" fill="none" xmlns="http://www.w3.org/2000/svg">
  <path d="M11 17h2v-6h-2v6Zm1-8c.2833 0 .521-.096.713-.288.192-.192.2877-.42933.287-.712 0-.28333-.096-.521-.288-.713-.192-.192-.4293-.28767-.712-.287-.2833 0-.521.096-.713.288-.192.192-.2877.42933-.287.712 0 .28333.096.521.288.713.192.192.4293.28767.712.287Zm0 13c-1.3833 0-2.68333-.2627-3.9-.788-1.21667-.5253-2.275-1.2377-3.175-2.137-.9-.9-1.61233-1.9583-2.137-3.175S2.00067 13.3833 2 12c0-1.3833.26267-2.68333.788-3.9.52533-1.21667 1.23767-2.275 2.137-3.175.9-.9 1.95833-1.61233 3.175-2.137S10.6167 2.00067 12 2c1.3833 0 2.6833.26267 3.9.788 1.2167.52533 2.275 1.23767 3.175 2.137.9.9 1.6127 1.95833 2.138 3.175.5253 1.21667.7877 2.5167.787 3.9 0 1.3833-.2627 2.6833-.788 3.9-.5253 1.2167-1.2377 2.275-2.137 3.175-.9.9-1.9583 1.6127-3.175 2.138-1.2167.5253-2.5167.7877-3.9.787Zm0-2c2.2333 0 4.125-.775 5.675-2.325C19.225 16.125 20 14.2333 20 12c0-2.23333-.775-4.125-2.325-5.675C16.125 4.775 14.2333 4 12 4c-2.23333 0-4.125.775-5.675 2.325C4.775 7.875 4 9.76667 4 12c0 2.2333.775 4.125 2.325 5.675C7.875 19.225 9.76667 20 12 20Z" fill="#fff"/>
</svg>