<svg width="36" height="36" fill="none" xmlns="http://www.w3.org/2000/svg">
  <path fill-rule="evenodd" clip-rule="evenodd" d="M5.025 4.275A3.5 3.5 0 0 1 7.5 3.25h5.25a2 2 0 1 1 0 4H8V31h20V7.25h-4.75a2 2 0 1 1 0-4h5.25a3.5 3.5 0 0 1 3.5 3.5V31.5a3.5 3.5 0 0 1-3.5 3.5h-21A3.5 3.5 0 0 1 4 31.5V6.75a3.5 3.5 0 0 1 1.025-2.475Z" fill="#fff"/>
  <path d="M12.75 3h10.5v4.5h-10.5V3Z" fill="#fff"/>
  <path fill-rule="evenodd" clip-rule="evenodd" d="M10.75 3a2 2 0 0 1 2-2h10.5a2 2 0 0 1 2 2v4.5a2 2 0 0 1-2 2h-10.5a2 2 0 0 1-2-2V3Zm4 2v.5h6.5V5h-6.5Z" fill="#fff"/>
</svg>
