<svg width="24" height="24" viewBox="0 0 24 24" fill="none" xmlns="http://www.w3.org/2000/svg">
<path d="M17.6493 6.34989C16.8111 5.50416 15.7937 4.8575 14.6721 4.45768C13.5505 4.05786 12.3534 3.91508 11.1693 4.03989C7.49929 4.40989 4.47929 7.38989 4.06929 11.0599C3.51929 15.9099 7.26929 19.9999 11.9993 19.9999C13.5094 19.9999 14.9885 19.5714 16.2648 18.7642C17.5411 17.957 18.5621 16.8043 19.2093 15.4399C19.5293 14.7699 19.0493 13.9999 18.3093 13.9999C17.9393 13.9999 17.5893 14.1999 17.4293 14.5299C16.8487 15.7789 15.8557 16.7899 14.6172 17.3927C13.3788 17.9955 11.9705 18.1534 10.6293 17.8399C8.40929 17.3499 6.61929 15.5399 6.14929 13.3199C5.95172 12.4422 5.95401 11.5312 6.15598 10.6545C6.35796 9.77775 6.75445 8.95764 7.31614 8.25481C7.87783 7.55198 8.59033 6.98442 9.40096 6.59411C10.2116 6.20379 11.0996 6.00071 11.9993 5.99989C13.6593 5.99989 15.1393 6.68989 16.2193 7.77989L14.7093 9.28989C14.0793 9.91989 14.5193 10.9999 15.4093 10.9999H18.9993C19.5493 10.9999 19.9993 10.5499 19.9993 9.99989V6.40989C19.9993 5.51989 18.9193 5.06989 18.2893 5.69989L17.6493 6.34989Z" fill="white"/>
</svg>