<svg width="24" height="24" viewBox="0 0 24 24" fill="none" xmlns="http://www.w3.org/2000/svg">
<path d="M19.7469 12.7455C19.9345 12.558 20.0398 12.3036 20.0398 12.0384C20.0398 11.7732 19.9345 11.5188 19.7469 11.3313L14.1254 5.63909C13.9379 5.45156 13.6835 5.3462 13.4183 5.3462C13.1531 5.3462 12.8987 5.45156 12.7112 5.63909C12.5237 5.82663 12.4183 6.08098 12.4183 6.3462C12.4183 6.61142 12.5237 6.86577 12.7112 7.05331L16.6427 10.9848L4.93303 10.999C4.80102 10.9984 4.67021 11.024 4.54814 11.0743C4.42608 11.1246 4.31517 11.1985 4.22183 11.2918C4.12848 11.3852 4.05454 11.4961 4.00427 11.6182C3.954 11.7402 3.9284 11.871 3.92894 12.0031C3.9284 12.1351 3.954 12.2659 4.00427 12.3879C4.05454 12.51 4.12848 12.6209 4.22183 12.7143C4.31517 12.8076 4.42608 12.8815 4.54814 12.9318C4.67021 12.9821 4.80102 13.0077 4.93303 13.0071L16.6569 13.0071L12.7112 16.9528C12.5237 17.1403 12.4183 17.3947 12.4183 17.6599C12.4183 17.9251 12.5237 18.1795 12.7112 18.367C12.8987 18.5546 13.1531 18.6599 13.4183 18.6599C13.6835 18.6599 13.9379 18.5546 14.1254 18.367L19.7469 12.7455Z" fill="white"/>
</svg>
