<svg width="24" height="24" fill="none" xmlns="http://www.w3.org/2000/svg">
  <path d="M5 3c-.53043 0-1.03914.21071-1.41421.58579C3.21071 3.96086 3 4.46957 3 5v14c0 .5304.21071 1.0391.58579 1.4142C3.96086 20.7893 4.46957 21 5 21h14c.5304 0 1.0391-.2107 1.4142-.5858S21 19.5304 21 19V5.5L18.5 3H17v6c0 .26522-.1054.51957-.2929.70711C16.5196 9.89464 16.2652 10 16 10H8c-.26522 0-.51957-.10536-.70711-.29289C7.10536 9.51957 7 9.26522 7 9V3H5Zm7 1v5h3V4h-3Zm-5 8h10c.2652 0 .5196.1054.7071.2929S18 12.7348 18 13v6H6v-6c0-.2652.10536-.5196.29289-.7071C6.48043 12.1054 6.73478 12 7 12Z" fill="#fff"/>
</svg>