<svg width="36" height="36" viewBox="0 0 36 36" fill="none" xmlns="http://www.w3.org/2000/svg">
<path d="M29.25 18C29.25 17.655 29.235 17.325 29.205 16.98L31.995 14.865C32.595 14.415 32.76 13.575 32.385 12.915L29.58 8.07C29.4001 7.75228 29.1092 7.51221 28.7631 7.39593C28.417 7.27965 28.0402 7.29534 27.705 7.44L24.48 8.805C23.925 8.415 23.34 8.07 22.725 7.785L22.29 4.32C22.2 3.57 21.555 3 20.805 3H15.21C14.445 3 13.8 3.57 13.71 4.32L13.275 7.785C12.66 8.07 12.075 8.415 11.52 8.805L8.29499 7.44C7.60499 7.14 6.79499 7.41 6.41999 8.07L3.61499 12.93C3.23999 13.59 3.40499 14.415 4.00499 14.88L6.79499 16.995C6.73281 17.6686 6.73281 18.3464 6.79499 19.02L4.00499 21.135C3.40499 21.585 3.23999 22.425 3.61499 23.085L6.41999 27.93C6.79499 28.59 7.60499 28.86 8.29499 28.56L11.52 27.195C12.075 27.585 12.66 27.93 13.275 28.215L13.71 31.68C13.8 32.43 14.445 33 15.195 33H20.79C21.54 33 22.185 32.43 22.275 31.68L22.71 28.215C23.325 27.93 23.91 27.585 24.465 27.195L27.69 28.56C28.38 28.86 29.19 28.59 29.565 27.93L32.37 23.085C32.745 22.425 32.58 21.6 31.98 21.135L29.19 19.02C29.235 18.675 29.25 18.345 29.25 18ZM18.06 23.25C15.165 23.25 12.81 20.895 12.81 18C12.81 15.105 15.165 12.75 18.06 12.75C20.955 12.75 23.31 15.105 23.31 18C23.31 20.895 20.955 23.25 18.06 23.25Z" fill="white"/>
</svg>
