<svg width="24" height="24" fill="none" xmlns="http://www.w3.org/2000/svg">
  <path d="M4 8.99985h3.5c.736 0 1.393.391 1.851 1.00095.32529-.60198.7255-1.16042 1.191-1.66195-.803-.823-1.866-1.339-3.042-1.339H4c-.26522 0-.51957.10536-.70711.29289C3.10536 7.48028 3 7.73463 3 7.99985s.10536.51957.29289.70711c.18754.18753.44189.29289.70711.29289Zm7.685 3.11095c.551-1.657 2.256-3.11095 3.649-3.11095h1.838l-1.293 1.29295c-.0928.0929-.1665.2031-.2167.3244-.0503.1213-.0761.2513-.0761.3826 0 .1314.0258.2614.0761.3827.0502.1213.1239.2315.2167.3243.0928.0929.2031.1665.3244.2168.1213.0502.2513.0761.3826.0761.1313 0 .2613-.0259.3826-.0761.1213-.0503.2316-.1239.3244-.2168L21 7.99985l-3.707-3.707c-.0928-.09285-.2031-.16649-.3244-.21674C16.8473 4.02586 16.7173 4 16.586 4c-.1313 0-.2613.02586-.3826.07611-.1213.05025-.2316.12389-.3244.21674-.0928.09284-.1665.20307-.2167.32437-.0503.12131-.0761.25133-.0761.38263 0 .1313.0258.26132.0761.38262.0502.12131.1239.23153.2167.32438l1.293 1.293h-1.838c-2.274 0-4.711 1.967-5.547 4.47895l-.472 1.411c-.641 1.926-2.072 3.11-2.815 3.11H4c-.26522 0-.51957.1054-.70711.2929-.18753.1876-.29289.4419-.29289.7071 0 .2653.10536.5196.29289.7072.18754.1875.44189.2928.70711.2928h2.5c1.837 0 3.863-1.925 4.713-4.479l.472-1.41Zm4.194 1.182c-.0929.0928-.1667.203-.217.3244-.0503.1213-.0762.2513-.0762.3826 0 .1314.0259.2614.0762.3827.0503.1214.1241.2316.217.3243l1.293 1.293h-2.338c-1.268 0-2.33-.891-2.691-2.108-.2661.773-.6326 1.5076-1.09 2.185.886 1.162 2.243 1.923 3.781 1.923h2.338l-1.293 1.293c-.0928.0929-.1665.2031-.2167.3244-.0503.1213-.0761.2513-.0761.3826 0 .1314.0258.2614.0761.3827.0502.1213.1239.2315.2167.3244.0928.0928.2031.1664.3244.2167.1213.0502.2513.0761.3826.0761.1313 0 .2613-.0259.3826-.0761.1213-.0503.2316-.1239.3244-.2167L21 16.9998l-3.707-3.707c-.0928-.0929-.203-.1666-.3243-.2169-.1213-.0504-.2514-.0763-.3827-.0763-.1313 0-.2614.0259-.3827.0763-.1213.0503-.2315.124-.3243.2169Z" fill="#fff"/>
</svg>