<svg width="21" height="20" viewBox="0 0 21 20" fill="none" xmlns="http://www.w3.org/2000/svg">
<g id="icons">
<path id="Vector" d="M12.4105 1.91098C12.5668 1.75475 12.7787 1.66699 12.9997 1.66699C13.2206 1.66699 13.4326 1.75475 13.5888 1.91098L16.9222 5.24431C17.0784 5.40059 17.1662 5.61251 17.1662 5.83348C17.1662 6.05445 17.0784 6.26637 16.9222 6.42265L13.5888 9.75598C13.4317 9.90778 13.2212 9.99177 13.0027 9.98987C12.7842 9.98798 12.5752 9.90034 12.4207 9.74583C12.2662 9.59132 12.1785 9.38231 12.1766 9.16381C12.1747 8.94532 12.2587 8.73482 12.4105 8.57765L14.3213 6.66681H4.66634C4.44533 6.66681 4.23337 6.57902 4.07709 6.42274C3.92081 6.26646 3.83301 6.05449 3.83301 5.83348C3.83301 5.61247 3.92081 5.40051 4.07709 5.24423C4.23337 5.08794 4.44533 5.00015 4.66634 5.00015H14.3213L12.4105 3.08931C12.2543 2.93304 12.1665 2.72112 12.1665 2.50015C12.1665 2.27918 12.2543 2.06725 12.4105 1.91098ZM8.58884 10.2443C8.74507 10.4006 8.83283 10.6125 8.83283 10.8335C8.83283 11.0545 8.74507 11.2664 8.58884 11.4226L6.67801 13.3335H16.333C16.554 13.3335 16.766 13.4213 16.9223 13.5776C17.0785 13.7338 17.1663 13.9458 17.1663 14.1668C17.1663 14.3878 17.0785 14.5998 16.9223 14.7561C16.766 14.9123 16.554 15.0001 16.333 15.0001H6.67801L8.58884 16.911C8.74064 17.0681 8.82463 17.2786 8.82274 17.4971C8.82084 17.7156 8.7332 17.9247 8.57869 18.0792C8.42418 18.2337 8.21517 18.3213 7.99668 18.3232C7.77818 18.3251 7.56768 18.2411 7.41051 18.0893L4.07717 14.756C3.92095 14.5997 3.83319 14.3878 3.83319 14.1668C3.83319 13.9458 3.92095 13.7339 4.07717 13.5776L7.41051 10.2443C7.56678 10.0881 7.7787 10.0003 7.99967 10.0003C8.22064 10.0003 8.43257 10.0881 8.58884 10.2443Z" fill="#A3A3A3"/>
</g>
</svg>
