<svg width="20" height="20" viewBox="0 0 20 20" fill="none" xmlns="http://www.w3.org/2000/svg">
<path d="M10.5292 2.71983C10.3886 2.57938 10.1979 2.50049 9.99918 2.50049C9.80043 2.50049 9.6098 2.57938 9.46918 2.71983L5.21918 6.96983C5.0867 7.112 5.01457 7.30005 5.018 7.49435C5.02143 7.68865 5.10014 7.87404 5.23755 8.01145C5.37497 8.14886 5.56035 8.22758 5.75465 8.231C5.94896 8.23443 6.137 8.16231 6.27918 8.02983L9.99918 4.30983L13.7192 8.02983C13.7878 8.10351 13.8706 8.16262 13.9626 8.20361C14.0546 8.2446 14.154 8.26664 14.2547 8.26842C14.3554 8.2702 14.4554 8.25167 14.5488 8.21395C14.6422 8.17623 14.727 8.12009 14.7982 8.04887C14.8694 7.97765 14.9256 7.89281 14.9633 7.79943C15.001 7.70604 15.0195 7.60601 15.0178 7.50531C15.016 7.4046 14.994 7.30529 14.953 7.21329C14.912 7.12129 14.8529 7.03849 14.7792 6.96983L10.5292 2.71983ZM14.7792 13.0298L10.5292 17.2798C10.3886 17.4203 10.1979 17.4992 9.99918 17.4992C9.80043 17.4992 9.6098 17.4203 9.46918 17.2798L5.21918 13.0298C5.14549 12.9612 5.08639 12.8784 5.0454 12.7864C5.0044 12.6944 4.98236 12.5951 4.98059 12.4944C4.97881 12.3936 4.99733 12.2936 5.03505 12.2002C5.07278 12.1068 5.12892 12.022 5.20014 11.9508C5.27136 11.8796 5.35619 11.8234 5.44958 11.7857C5.54297 11.748 5.643 11.7295 5.7437 11.7312C5.8444 11.733 5.94372 11.7551 6.03571 11.796C6.12771 11.837 6.21051 11.8961 6.27918 11.9698L9.99918 15.6898L13.7192 11.9698C13.7878 11.8961 13.8706 11.837 13.9626 11.796C14.0546 11.7551 14.154 11.733 14.2547 11.7312C14.3554 11.7295 14.4554 11.748 14.5488 11.7857C14.6422 11.8234 14.727 11.8796 14.7982 11.9508C14.8694 12.022 14.9256 12.1068 14.9633 12.2002C15.001 12.2936 15.0195 12.3936 15.0178 12.4944C15.016 12.5951 14.994 12.6944 14.953 12.7864C14.912 12.8784 14.8529 12.9612 14.7792 13.0298Z" fill="white"/>
</svg>
