<svg width="36" height="36" fill="none" xmlns="http://www.w3.org/2000/svg">
  <g clip-path="url(#a)">
    <path d="M15.945 21.15a10.498 10.498 0 1 1 19.11 8.7A10.47 10.47 0 0 1 25.5 36c-4.05 0-7.755-2.34-9.495-6H1.5v-3c.09-1.71 1.26-3.105 3.51-4.23 2.25-1.125 5.07-1.71 8.49-1.77.855 0 1.665.075 2.445.15ZM13.5 6c1.68.045 3.09.63 4.215 1.755s1.68 2.535 1.68 4.245-.555 3.12-1.68 4.245-2.535 1.68-4.215 1.68c-1.68 0-3.09-.555-4.215-1.68S7.605 13.71 7.605 12s.555-3.12 1.68-4.245S11.82 6.045 13.5 6Zm12 27a7.5 7.5 0 1 0 0-15 7.5 7.5 0 0 0 0 15ZM24 21h2.25v4.23l3.66 2.115-1.125 1.95L24 26.535V21Z" fill="#fff"/>
  </g>
  <defs>
    <clipPath id="a">
      <path fill="#fff" d="M0 0h36v36H0z"/>
    </clipPath>
  </defs>
</svg>
