<svg width="256" height="256" viewBox="0 0 256 256" fill="none" xmlns="http://www.w3.org/2000/svg">
<path d="M50 180H63V186.5H82.5V180H89V115H95.5V102H89V95.5H76V102H69.5V108.5H63V115H82.5V128H76V134.5H63V128H56.5V102H63V95.5H69.5V89H108.5V95.5H115V102H121.5V115H128V128H134.5V134.5H141V121.5H147.5V115H154V102H160.5V89H167V82.5H173.5V69.5H186.5V63H199.5V69.5H206V76H193V69.5H186.5V76H180V154H186.5V186.5H193V193H167V186.5H160.5V121.5H154V128H147.5V141H141V154H134.5V167H121.5V154H115V141H108.5V121.5H102V160.5H95.5V180H89V186.5H82.5V193H56.5V186.5H50V180Z" fill="#E23A5E"/>
</svg>
