<svg width="36" height="36" viewBox="0 0 36 36" fill="none" xmlns="http://www.w3.org/2000/svg">
<path d="M2.5 28.4H5.08333V29.7H8.95833V28.4H10.25V15.4H11.5417V12.8H10.25V11.5H7.66667V12.8H6.375V14.1H5.08333V15.4H8.95833V18H7.66667V19.3H5.08333V18H3.79167V12.8H5.08333V11.5H6.375V10.2H14.125V11.5H15.4167V12.8H16.7083V15.4H18V18H19.2917V19.3H20.5833V16.7H21.875V15.4H23.1667V12.8H24.4583V10.2H25.75V8.9H27.0417V6.3H29.625V5H32.2083V6.3H33.5V7.6H30.9167V6.3H29.625V7.6H28.3333V23.2H29.625V29.7H30.9167V31H25.75V29.7H24.4583V16.7H23.1667V18H21.875V20.6H20.5833V23.2H19.2917V25.8H16.7083V23.2H15.4167V20.6H14.125V16.7H12.8333V24.5H11.5417V28.4H10.25V29.7H8.95833V31H3.79167V29.7H2.5V28.4Z" fill="white"/>
</svg>
